<svg width="400" height="344" viewBox="0 0 400 344" fill="none" xmlns="http://www.w3.org/2000/svg">
<g clip-path="url(#clip0_54_10576)">
<path d="M117.552 340.41C123.973 334.959 127.874 326.348 126.851 317.965C125.828 309.582 119.493 301.876 111.275 300.096C103.057 298.316 93.6894 303.243 91.1934 311.308C89.8197 295.76 88.2368 279.559 80.0083 266.318C72.5576 254.329 59.6528 245.75 45.667 244.215C31.6812 242.68 16.9559 248.477 8.23343 259.567C-0.489028 270.657 -2.62468 286.78 3.4843 299.512C7.98457 308.891 16.2757 315.872 24.9626 321.55C53.0334 339.746 86.7007 347.146 119.77 342.387" fill="#D3DECB"/>
<path d="M22.0637 248.798C33.6038 258.241 44.1905 268.803 53.6709 280.33C68.5077 298.308 80.5137 318.464 89.2708 340.097C89.9119 341.675 87.3611 342.362 86.7272 340.801C81.1583 327.124 74.2685 314.028 66.1567 301.701C53.5072 282.444 38.0097 265.237 20.1984 250.672C18.8815 249.595 20.7577 247.73 22.0637 248.798Z" fill="#E8F3E1"/>
<path d="M122.983 340.41C116.562 334.959 112.661 326.348 113.684 317.965C114.707 309.582 121.042 301.876 129.26 300.096C137.478 298.316 146.846 303.243 149.342 311.308C150.715 295.76 152.298 279.559 160.527 266.318C167.978 254.329 180.882 245.75 194.868 244.215C208.854 242.68 223.579 248.477 232.302 259.567C241.024 270.657 243.16 286.78 237.051 299.512C232.551 308.891 224.259 315.872 215.572 321.55C187.502 339.746 153.834 347.146 120.765 342.387" fill="#D3DECB"/>
<path d="M217.476 248.798C205.936 258.241 195.349 268.803 185.868 280.33C171.032 298.308 159.026 318.464 150.268 340.097C149.627 341.675 152.178 342.362 152.812 340.801C167.14 305.643 190.014 274.656 219.341 250.672C220.658 249.595 218.782 247.73 217.476 248.798Z" fill="#E8F3E1"/>
<path d="M141.042 154.748C152.922 154.748 162.551 145.073 162.551 133.139C162.551 121.205 152.922 111.53 141.042 111.53C129.163 111.53 119.533 121.205 119.533 133.139C119.533 145.073 129.163 154.748 141.042 154.748Z" fill="#D3DECB"/>
<path d="M74.7236 58.6492H222.916V66.7945H93.6417C86.0408 66.7945 78.5144 68.2986 71.4922 71.2207C64.4699 74.1429 58.0893 78.4261 52.7147 83.8256C47.3401 89.2251 43.0768 95.6353 40.1681 102.69C37.2593 109.745 35.7623 117.306 35.7623 124.942V217.483H19.5468C18.83 217.483 18.1427 217.197 17.6358 216.688C17.129 216.179 16.8443 215.488 16.8442 214.768V116.797C16.8442 109.161 18.3413 101.6 21.25 94.5447C24.1588 87.4899 28.4221 81.0797 33.7967 75.6802C39.1713 70.2807 45.5519 65.9976 52.5741 63.0754C59.5964 60.1532 67.1228 58.6491 74.7236 58.6492Z" fill="#D3DECB"/>
<path d="M103.228 340.863V217.135H139.307V340.863C139.306 341.695 138.977 342.492 138.392 343.08C137.807 343.668 137.013 343.999 136.185 344H106.35C105.522 343.999 104.728 343.668 104.143 343.08C103.558 342.492 103.228 341.695 103.228 340.863Z" fill="#163027"/>
<path d="M9.21191 214.695V114.085C9.22991 98.0685 15.571 82.7132 26.8441 71.3878C38.1171 60.0625 53.4015 53.6919 69.344 53.6738H222.222V218.18H12.6811C11.7614 218.179 10.8796 217.812 10.2292 217.158C9.57882 216.505 9.21297 215.619 9.21191 214.695ZM220.834 55.0679H69.344C53.7694 55.0856 38.8378 61.3092 27.8249 72.3732C16.812 83.4372 10.6172 98.4382 10.5996 114.085V214.695C10.6002 215.249 10.8197 215.781 11.2099 216.173C11.6002 216.565 12.1293 216.786 12.6811 216.786H220.834V55.0679Z" fill="#163027"/>
<path d="M141.042 144.292C137.731 144.288 134.556 142.965 132.215 140.613C129.874 138.26 128.557 135.071 128.553 131.745V41.8237C128.552 41.2693 128.333 40.7377 127.943 40.3457C127.552 39.9536 127.023 39.7331 126.471 39.7325H77.9023C76.9826 39.7315 76.1008 39.3639 75.4504 38.7105C74.8 38.0571 74.4342 37.1712 74.4331 36.2472V3.48531C74.4342 2.56128 74.8 1.67539 75.4504 1.022C76.1008 0.368611 76.9826 0.00107002 77.9023 0H150.062C150.982 0.00105713 151.864 0.368597 152.514 1.02199C153.164 1.67538 153.53 2.56127 153.531 3.48531V131.745C153.528 135.071 152.21 138.26 149.869 140.613C147.528 142.965 144.353 144.288 141.042 144.292Z" fill="#499A7D"/>
<path d="M227.773 52.2796C238.24 52.2576 248.287 56.4138 255.704 63.8339C263.121 71.254 267.3 81.3302 267.322 91.8459V206.38H345.032C348.154 206.373 351.15 207.613 353.362 209.826C355.574 212.039 356.821 215.044 356.827 218.18H188.224V91.8459C188.246 81.3302 192.425 71.254 199.842 63.8339C207.258 56.4138 217.306 52.2576 227.773 52.2796Z" fill="#163027"/>
<path d="M218.282 117.502L226.472 151.488L386.667 112.528L378.478 78.5421C378.379 78.1265 378.177 77.7429 377.891 77.4266C377.605 77.1104 377.244 76.8718 376.842 76.7332C376.545 76.6282 376.231 76.5807 375.916 76.5932L283.316 28.4249C282.774 28.1465 282.15 28.0722 281.558 28.2153C280.965 28.3583 280.443 28.7094 280.086 29.2051L235.458 91.7272L218.634 115.304C218.603 115.345 218.582 115.392 218.571 115.443C218.56 115.493 218.561 115.545 218.572 115.595C218.229 116.168 218.125 116.853 218.282 117.502Z" fill="#F3F3F3"/>
<path d="M218.572 115.595C218.579 115.64 218.596 115.682 218.62 115.72C218.644 115.757 218.676 115.79 218.712 115.815C218.756 115.845 218.805 115.866 218.857 115.876C218.908 115.887 218.962 115.886 219.013 115.875C219.097 115.853 219.17 115.802 219.221 115.731L219.278 115.65L220.154 114.419L236.063 92.1384L280.678 29.6307C280.933 29.2765 281.305 29.0257 281.728 28.9238C282.151 28.822 282.596 28.8759 282.983 29.0756L374.865 76.8708L375.69 77.3008C375.723 77.3148 375.757 77.3269 375.792 77.3368C375.854 77.3254 375.917 77.3194 375.98 77.3187C376.067 77.2897 376.139 77.2286 376.182 77.1481C376.204 77.1056 376.218 77.0592 376.222 77.0113C376.227 76.9635 376.222 76.9153 376.208 76.8694C376.194 76.8236 376.171 76.7809 376.14 76.7439C376.109 76.707 376.072 76.6764 376.03 76.6541L375.916 76.5932L283.316 28.4249C282.774 28.1465 282.15 28.0722 281.557 28.2153C280.965 28.3583 280.443 28.7094 280.085 29.2051L235.458 91.7272L218.633 115.304C218.603 115.345 218.581 115.392 218.571 115.443C218.56 115.493 218.56 115.545 218.572 115.595Z" fill="#163027"/>
<path d="M266.683 119.061L270.249 119.458L296.714 122.404L314.258 124.355L315.295 124.471L337.187 107.292L338.025 106.634L343.196 102.577L361.592 88.1431L361.703 87.1293L368.246 27.7995C368.335 26.9825 368.098 26.1634 367.587 25.5216C367.076 24.8798 366.333 24.4678 365.52 24.3758L278.196 14.6576C277.383 14.5684 276.567 14.8065 275.929 15.3199C275.29 15.8332 274.88 16.5799 274.788 17.3965L270.174 59.2464L267.614 82.4487L265.324 103.206L264.263 112.846L263.953 115.638C263.865 116.455 264.103 117.275 264.614 117.916C265.126 118.558 265.87 118.969 266.683 119.061Z" fill="#D3DECB"/>
<path d="M290.68 67.0558L328.506 71.2647L341.921 72.7569C342.513 72.8228 343.112 72.7708 343.685 72.604C344.257 72.4372 344.791 72.1588 345.256 71.7846C345.721 71.4105 346.108 70.948 346.396 70.4235C346.683 69.899 346.865 69.3228 346.93 68.7278C346.996 68.1328 346.944 67.5307 346.778 66.9558C346.612 66.3808 346.335 65.8444 345.962 65.377C345.59 64.9097 345.13 64.5207 344.608 64.2321C344.085 63.9435 343.512 63.761 342.92 63.6951L326.235 61.8387L291.682 57.9896C290.486 57.8568 289.286 58.2068 288.346 58.9625C287.406 59.7183 286.804 60.8179 286.671 62.0198C286.538 63.2216 286.886 64.4272 287.638 65.3716C288.39 66.316 289.484 66.9217 290.68 67.0558Z" fill="#F3F3F3"/>
<path d="M288.526 83.8661C288.624 83.8837 288.721 83.9012 288.821 83.9108L332.731 88.7978L340.062 89.6154C341.259 89.7484 342.459 89.3984 343.399 88.6424C344.338 87.8864 344.941 86.7863 345.073 85.5842C345.205 84.382 344.857 83.1763 344.104 82.2322C343.352 81.2882 342.257 80.6831 341.06 80.5501L330.459 79.3719L295.677 75.4998L289.823 74.8482C288.653 74.717 287.477 75.0483 286.545 75.772C285.614 76.4957 284.998 77.5552 284.83 78.7263C284.661 79.8975 284.953 81.0886 285.643 82.0477C286.332 83.0069 287.367 83.659 288.526 83.8661Z" fill="#F3F3F3"/>
<path d="M283.556 98.772C283.916 99.3721 284.409 99.8809 284.996 100.259C285.584 100.637 286.25 100.873 286.943 100.951L304.94 102.953L336.994 106.521L337.001 106.519L338.026 106.634L343.196 102.577C343.228 102.268 343.229 101.958 343.197 101.65C343.088 100.615 342.631 99.6481 341.901 98.9099C341.171 98.1717 340.211 97.7061 339.182 97.5899L334.729 97.0929L317.066 95.1292L304.357 93.7131L287.941 91.8853C287.099 91.7917 286.249 91.9364 285.485 92.3031C284.721 92.6697 284.075 93.2437 283.619 93.9601C283.163 94.6765 282.915 95.5067 282.904 96.3571C282.893 97.2074 283.119 98.0439 283.556 98.772Z" fill="#F3F3F3"/>
<path d="M308.835 46.5076L318.247 47.5549L322.404 48.0187L328.683 48.7168C329.88 48.8498 331.08 48.4998 332.02 47.7438C332.959 46.9878 333.562 45.8877 333.694 44.6856C333.826 43.4834 333.478 42.2777 332.725 41.3336C331.973 40.3896 330.878 39.7845 329.681 39.6515L309.838 37.445C308.642 37.3115 307.442 37.6608 306.502 38.4161C305.562 39.1714 304.959 40.2709 304.826 41.4727C304.693 42.6745 305.041 43.8801 305.793 44.8243C306.545 45.7686 307.639 46.3741 308.835 46.5076Z" fill="#F3F3F3"/>
<path d="M231.878 71.7498L243.353 119.369L262.503 123.027L280.219 126.415L299.226 130.049L305.299 131.21C305.654 131.277 306.02 131.268 306.372 131.183C306.723 131.097 307.053 130.937 307.338 130.714L312.211 126.891L315.295 124.471L337.188 107.292L323.268 49.5237C323.13 48.9489 322.83 48.4263 322.404 48.0186C322.031 47.6579 321.573 47.3975 321.073 47.2614C320.572 47.1253 320.046 47.1179 319.542 47.2399L234.151 68.0072C233.356 68.2011 232.67 68.7042 232.244 69.406C231.818 70.1077 231.686 70.9507 231.878 71.7498Z" fill="#499A7D"/>
<path d="M258.189 109.632C258.473 110.807 259.209 111.82 260.236 112.45C261.263 113.08 262.497 113.274 263.667 112.991L313.773 100.805C314.941 100.519 315.95 99.7791 316.576 98.7473C317.203 97.7156 317.397 96.4763 317.115 95.3012C317.103 95.243 317.086 95.1855 317.067 95.1293C316.747 93.9963 316.003 93.0318 314.99 92.4378C313.978 91.8437 312.776 91.6664 311.637 91.9428L261.532 104.129C260.362 104.414 259.354 105.154 258.727 106.186C258.1 107.218 257.907 108.457 258.189 109.632Z" fill="#F3F3F3"/>
<path d="M262.503 123.027L280.218 126.415L317.744 117.289C318.914 117.005 319.923 116.265 320.55 115.233C321.177 114.2 321.37 112.96 321.087 111.785C320.804 110.61 320.068 109.596 319.04 108.966C318.013 108.336 316.779 108.142 315.609 108.427L265.503 120.612C264.456 120.865 263.534 121.486 262.903 122.363C262.751 122.573 262.617 122.795 262.503 123.027Z" fill="#F3F3F3"/>
<path d="M299.225 130.049L305.298 131.21C305.654 131.277 306.02 131.268 306.371 131.183C306.723 131.097 307.052 130.937 307.338 130.714L312.21 126.891L299.225 130.049Z" fill="#F3F3F3"/>
<path d="M268.285 84.0982C268.569 85.2728 269.305 86.2862 270.332 86.9159C271.359 87.5456 272.593 87.74 273.763 87.4566L293.17 82.7368C294.339 82.4508 295.347 81.7108 295.974 80.679C296.6 79.6473 296.794 78.4081 296.513 77.2329C296.362 76.6015 296.077 76.0103 295.677 75.4999C295.14 74.8099 294.417 74.2897 293.594 74.0015C292.77 73.7133 291.882 73.6692 291.034 73.8745L271.627 78.5943C270.458 78.879 269.449 79.6187 268.822 80.6508C268.195 81.683 268.001 82.923 268.285 84.0982Z" fill="#F3F3F3"/>
<path d="M280.217 126.415L299.227 130.049L305.298 131.211C305.654 131.278 306.019 131.268 306.37 131.183C306.722 131.097 307.051 130.938 307.337 130.715L312.213 126.891L310.502 127.307L306.89 130.138C306.686 130.297 306.45 130.411 306.199 130.472C305.948 130.533 305.687 130.54 305.433 130.492L300.938 129.633L281.928 125.999L280.217 126.415ZM336.999 106.522L337.185 107.29L338.028 106.631L336.999 106.522ZM280.217 126.415L299.227 130.049L305.298 131.211C305.654 131.278 306.019 131.268 306.37 131.183C306.722 131.097 307.051 130.938 307.337 130.715L312.213 126.891L310.502 127.307L306.89 130.138C306.686 130.297 306.45 130.411 306.199 130.472C305.948 130.533 305.687 130.54 305.433 130.492L300.938 129.633L281.928 125.999L280.217 126.415ZM280.217 126.415L299.227 130.049L305.298 131.211C305.654 131.278 306.019 131.268 306.37 131.183C306.722 131.097 307.051 130.938 307.337 130.715L312.213 126.891L310.502 127.307L306.89 130.138C306.686 130.297 306.45 130.411 306.199 130.472C305.948 130.533 305.687 130.54 305.433 130.492L300.938 129.633L281.928 125.999L280.217 126.415ZM218.282 117.502L239.733 206.524C239.892 207.182 240.305 207.749 240.88 208.102C241.455 208.454 242.146 208.563 242.801 208.405L398.056 170.646C398.711 170.487 399.276 170.072 399.627 169.494C399.978 168.916 400.087 168.222 399.929 167.564L378.478 78.5421C378.379 78.1265 378.177 77.7428 377.891 77.4266C377.605 77.1104 377.244 76.8718 376.842 76.7331C376.545 76.6282 376.231 76.5807 375.916 76.5932C375.549 76.6038 375.19 76.6988 374.866 76.8708C374.716 76.9423 374.574 77.0304 374.444 77.1337L361.702 87.1294L343.198 101.652L336.998 106.516L336.999 106.522L336.994 106.523L314.26 124.352L310.502 127.307L306.89 130.138C306.686 130.297 306.45 130.411 306.199 130.472C305.948 130.533 305.687 130.54 305.433 130.492L300.938 129.633L281.928 125.999L262.901 122.363L221.228 114.396C220.873 114.325 220.507 114.333 220.155 114.419C219.681 114.536 219.25 114.786 218.914 115.142C218.785 115.281 218.671 115.433 218.572 115.595C218.229 116.168 218.125 116.853 218.282 117.502ZM280.217 126.415L299.227 130.049L305.298 131.211C305.654 131.278 306.019 131.268 306.37 131.183C306.722 131.097 307.051 130.938 307.337 130.715L312.213 126.891L310.502 127.307L306.89 130.138C306.686 130.297 306.45 130.411 306.199 130.472C305.948 130.533 305.687 130.54 305.433 130.492L300.938 129.633L281.928 125.999L280.217 126.415ZM280.217 126.415L299.227 130.049L305.298 131.211C305.654 131.278 306.019 131.268 306.37 131.183C306.722 131.097 307.051 130.938 307.337 130.715L312.213 126.891L310.502 127.307L306.89 130.138C306.686 130.297 306.45 130.411 306.199 130.472C305.948 130.533 305.687 130.54 305.433 130.492L300.938 129.633L281.928 125.999L280.217 126.415ZM280.217 126.415L299.227 130.049L305.298 131.211C305.654 131.278 306.019 131.268 306.37 131.183C306.722 131.097 307.051 130.938 307.337 130.715L312.213 126.891L310.502 127.307L306.89 130.138C306.686 130.297 306.45 130.411 306.199 130.472C305.948 130.533 305.687 130.54 305.433 130.492L300.938 129.633L281.928 125.999L280.217 126.415Z" fill="#F3F3F3"/>
<path d="M280.217 126.415L299.227 130.049L305.298 131.211C305.654 131.278 306.019 131.268 306.37 131.182C306.722 131.097 307.051 130.938 307.337 130.715L312.213 126.891L310.502 127.307L306.89 130.138C306.686 130.297 306.45 130.411 306.199 130.472C305.948 130.533 305.687 130.54 305.433 130.492L300.938 129.633L281.928 125.999L280.217 126.415ZM336.999 106.522L337.185 107.29L338.028 106.631L336.999 106.522ZM280.217 126.415L299.227 130.049L305.298 131.211C305.654 131.278 306.019 131.268 306.37 131.182C306.722 131.097 307.051 130.938 307.337 130.715L312.213 126.891L310.502 127.307L306.89 130.138C306.686 130.297 306.45 130.411 306.199 130.472C305.948 130.533 305.687 130.54 305.433 130.492L300.938 129.633L281.928 125.999L280.217 126.415ZM280.217 126.415L299.227 130.049L305.298 131.211C305.654 131.278 306.019 131.268 306.37 131.182C306.722 131.097 307.051 130.938 307.337 130.715L312.213 126.891L310.502 127.307L306.89 130.138C306.686 130.297 306.45 130.411 306.199 130.472C305.948 130.533 305.687 130.54 305.433 130.492L300.938 129.633L281.928 125.999L280.217 126.415ZM219.279 115.65L219.373 115.721C219.389 115.695 219.416 115.672 219.437 115.645C219.647 115.425 219.908 115.261 220.197 115.168C220.486 115.074 220.793 115.054 221.092 115.11L262.504 123.024L280.217 126.415L299.227 130.049L305.298 131.211C305.654 131.278 306.019 131.268 306.37 131.182C306.722 131.097 307.051 130.938 307.337 130.715L312.213 126.891L310.502 127.307L306.89 130.138C306.686 130.297 306.45 130.411 306.199 130.472C305.948 130.533 305.687 130.54 305.433 130.492L300.938 129.633L281.928 125.999L262.901 122.363L221.228 114.396C220.873 114.325 220.507 114.333 220.155 114.419L219.279 115.65ZM218.282 117.502L239.733 206.524C239.892 207.182 240.305 207.749 240.88 208.102C241.455 208.454 242.146 208.563 242.801 208.405L398.056 170.646C398.711 170.487 399.276 170.072 399.627 169.494C399.978 168.916 400.087 168.222 399.929 167.564L378.478 78.5421C378.379 78.1265 378.177 77.7428 377.891 77.4266C377.605 77.1104 377.244 76.8718 376.842 76.7331C376.545 76.6282 376.231 76.5807 375.916 76.5932C375.549 76.6038 375.19 76.6988 374.866 76.8708C374.716 76.9423 374.574 77.0304 374.444 77.1337L361.702 87.1294L343.198 101.652L336.998 106.516L336.999 106.522L336.994 106.523L314.26 124.352L310.502 127.307L306.89 130.138C306.686 130.297 306.45 130.411 306.199 130.472C305.948 130.533 305.687 130.54 305.433 130.492L300.938 129.633L281.928 125.999L262.901 122.363L221.228 114.396C220.873 114.325 220.507 114.333 220.155 114.419C219.681 114.536 219.25 114.786 218.914 115.142C218.785 115.281 218.671 115.433 218.572 115.595C218.229 116.168 218.125 116.853 218.282 117.502ZM218.99 117.33C218.927 117.068 218.922 116.794 218.978 116.53C219.033 116.266 219.147 116.017 219.31 115.803C219.325 115.771 219.346 115.744 219.373 115.721C219.389 115.695 219.416 115.672 219.437 115.645C219.647 115.425 219.908 115.261 220.197 115.168C220.486 115.074 220.793 115.054 221.092 115.11L262.504 123.024L280.217 126.415L299.227 130.049L305.298 131.211C305.654 131.278 306.019 131.268 306.37 131.182C306.722 131.097 307.051 130.938 307.337 130.715L312.213 126.891L315.296 124.471L337.185 107.29L338.028 106.631L343.194 102.576L361.594 88.1403L374.896 77.7042C375.098 77.5457 375.331 77.4324 375.581 77.3716C375.65 77.3545 375.721 77.3429 375.792 77.3368C375.855 77.3254 375.918 77.3193 375.981 77.3186C376.193 77.3166 376.405 77.3512 376.606 77.421C376.892 77.5213 377.15 77.6921 377.354 77.9177C377.558 78.1433 377.703 78.4166 377.776 78.7128L399.226 167.735C399.283 167.968 399.293 168.21 399.256 168.447C399.219 168.685 399.136 168.912 399.012 169.117C398.887 169.322 398.724 169.5 398.531 169.642C398.338 169.783 398.119 169.885 397.886 169.941L242.631 207.699C242.163 207.813 241.669 207.734 241.258 207.481C240.847 207.229 240.553 206.822 240.441 206.352L218.99 117.33ZM280.217 126.415L299.227 130.049L305.298 131.211C305.654 131.278 306.019 131.268 306.37 131.182C306.722 131.097 307.051 130.938 307.337 130.715L312.213 126.891L310.502 127.307L306.89 130.138C306.686 130.297 306.45 130.411 306.199 130.472C305.948 130.533 305.687 130.54 305.433 130.492L300.938 129.633L281.928 125.999L280.217 126.415ZM280.217 126.415L299.227 130.049L305.298 131.211C305.654 131.278 306.019 131.268 306.37 131.182C306.722 131.097 307.051 130.938 307.337 130.715L312.213 126.891L310.502 127.307L306.89 130.138C306.686 130.297 306.45 130.411 306.199 130.472C305.948 130.533 305.687 130.54 305.433 130.492L300.938 129.633L281.928 125.999L280.217 126.415ZM280.217 126.415L299.227 130.049L305.298 131.211C305.654 131.278 306.019 131.268 306.37 131.182C306.722 131.097 307.051 130.938 307.337 130.715L312.213 126.891L310.502 127.307L306.89 130.138C306.686 130.297 306.45 130.411 306.199 130.472C305.948 130.533 305.687 130.54 305.433 130.492L300.938 129.633L281.928 125.999L280.217 126.415Z" fill="#163027"/>
<path d="M357.592 153.157C357.242 151.698 357.483 150.159 358.261 148.879C359.039 147.598 360.29 146.679 361.742 146.325L381.337 141.559C382.787 141.212 384.315 141.456 385.586 142.238C386.857 143.021 387.767 144.277 388.118 145.733C388.469 147.188 388.231 148.724 387.457 150.004C386.683 151.283 385.435 152.203 383.988 152.56L364.392 157.326C362.94 157.677 361.409 157.435 360.134 156.654C358.859 155.872 357.945 154.615 357.592 153.157Z" fill="#499A7D"/>
<path d="M141.042 136.624C143.724 136.624 145.899 134.44 145.899 131.745C145.899 129.05 143.724 126.865 141.042 126.865C138.36 126.865 136.185 129.05 136.185 131.745C136.185 134.44 138.36 136.624 141.042 136.624Z" fill="#F3F3F3"/>
</g>
<defs>
<clipPath id="clip0_54_10576">
<rect width="400" height="344" fill="white"/>
</clipPath>
</defs>
</svg>
