<svg width="400" height="344" viewBox="0 0 400 344" fill="none" xmlns="http://www.w3.org/2000/svg">
<g clip-path="url(#clip0_172_61758)">
<path d="M117.552 340.411C123.973 334.959 127.874 326.348 126.851 317.965C125.828 309.583 119.493 301.876 111.275 300.096C103.057 298.316 93.6894 303.243 91.1934 311.308C89.8197 295.76 88.2368 279.559 80.0083 266.318C72.5576 254.329 59.6528 245.75 45.667 244.215C31.6812 242.68 16.9559 248.477 8.23343 259.567C-0.489028 270.657 -2.62468 286.78 3.4843 299.512C7.98457 308.891 16.2757 315.872 24.9626 321.551C53.0334 339.746 86.7007 347.146 119.77 342.388" fill="#1D2524"/>
<path d="M22.0637 248.798C33.6038 258.241 44.1905 268.803 53.6709 280.329C68.5077 298.307 80.5137 318.464 89.2708 340.097C89.9119 341.675 87.3611 342.362 86.7272 340.801C81.1583 327.124 74.2685 314.028 66.1567 301.7C53.5072 282.444 38.0097 265.237 20.1984 250.672C18.8815 249.595 20.7577 247.73 22.0637 248.798Z" fill="#151515"/>
<path d="M122.983 340.411C116.562 334.959 112.661 326.348 113.684 317.965C114.707 309.583 121.042 301.876 129.26 300.096C137.478 298.316 146.846 303.243 149.342 311.308C150.715 295.76 152.298 279.559 160.527 266.318C167.978 254.329 180.882 245.75 194.868 244.215C208.854 242.68 223.579 248.477 232.302 259.567C241.024 270.657 243.16 286.78 237.051 299.512C232.551 308.891 224.259 315.872 215.572 321.551C187.502 339.746 153.834 347.146 120.765 342.388" fill="#1D2524"/>
<path d="M217.476 248.798C205.936 258.241 195.349 268.803 185.868 280.329C171.032 298.307 159.026 318.464 150.268 340.097C149.627 341.675 152.178 342.362 152.812 340.801C167.14 305.643 190.014 274.655 219.341 250.672C220.658 249.595 218.782 247.73 217.476 248.798Z" fill="#151515"/>
<path d="M141.042 154.748C152.922 154.748 162.551 145.073 162.551 133.139C162.551 121.204 152.922 111.53 141.042 111.53C129.163 111.53 119.533 121.204 119.533 133.139C119.533 145.073 129.163 154.748 141.042 154.748Z" fill="#1D2524"/>
<path d="M74.7236 58.6489H222.916V66.7943H93.6417C86.0408 66.7943 78.5144 68.2983 71.4922 71.2205C64.4699 74.1427 58.0893 78.4258 52.7147 83.8253C47.3401 89.2249 43.0768 95.635 40.1681 102.69C37.2593 109.745 35.7623 117.306 35.7623 124.942V217.483H19.5468C18.83 217.483 18.1427 217.197 17.6358 216.688C17.129 216.179 16.8443 215.488 16.8442 214.768V116.797C16.8442 109.161 18.3413 101.599 21.25 94.5445C24.1588 87.4897 28.4221 81.0795 33.7967 75.68C39.1713 70.2804 45.5519 65.9973 52.5741 63.0751C59.5964 60.1529 67.1228 58.6489 74.7236 58.6489Z" fill="#1D2524"/>
<path d="M103.228 340.863V217.135H139.307V340.863C139.306 341.695 138.977 342.492 138.392 343.08C137.807 343.668 137.013 343.999 136.185 344H106.35C105.522 343.999 104.728 343.668 104.143 343.08C103.558 342.492 103.228 341.695 103.228 340.863Z" fill="#305749"/>
<path d="M9.21191 214.695V114.085C9.22991 98.0686 15.571 82.7133 26.8441 71.3879C38.1171 60.0625 53.4015 53.692 69.344 53.6738H222.222V218.18H12.6811C11.7614 218.179 10.8796 217.812 10.2292 217.158C9.57882 216.505 9.21297 215.619 9.21191 214.695ZM220.834 55.068H69.344C53.7694 55.0857 38.8378 61.3092 27.8249 72.3733C16.812 83.4373 10.6172 98.4382 10.5996 114.085V214.695C10.6002 215.25 10.8197 215.781 11.2099 216.173C11.6002 216.565 12.1293 216.786 12.6811 216.786H220.834V55.068Z" fill="#305749"/>
<path d="M141.042 144.292C137.731 144.288 134.556 142.965 132.215 140.613C129.874 138.26 128.557 135.071 128.553 131.745V41.8237C128.552 41.2693 128.333 40.7377 127.943 40.3457C127.552 39.9536 127.023 39.7331 126.471 39.7325H77.9023C76.9826 39.7315 76.1008 39.3639 75.4504 38.7105C74.8 38.0571 74.4342 37.1712 74.4331 36.2472V3.48531C74.4342 2.56128 74.8 1.67539 75.4504 1.022C76.1008 0.368611 76.9826 0.00107002 77.9023 0H150.062C150.982 0.00105713 151.864 0.368597 152.514 1.02199C153.164 1.67538 153.53 2.56127 153.531 3.48531V131.745C153.528 135.071 152.21 138.26 149.869 140.613C147.528 142.965 144.353 144.288 141.042 144.292Z" fill="#218D66"/>
<path d="M227.773 52.2794C238.24 52.2573 248.287 56.4135 255.704 63.8336C263.121 71.2537 267.3 81.33 267.322 91.8456V206.38H345.032C348.154 206.373 351.15 207.613 353.362 209.826C355.574 212.039 356.821 215.044 356.827 218.18H188.224V91.8456C188.246 81.33 192.425 71.2537 199.842 63.8336C207.258 56.4135 217.306 52.2573 227.773 52.2794Z" fill="#305749"/>
<path d="M218.282 117.502L226.472 151.488L386.667 112.528L378.478 78.542C378.379 78.1264 378.177 77.7427 377.891 77.4265C377.605 77.1102 377.244 76.8717 376.842 76.733C376.545 76.6281 376.231 76.5806 375.916 76.5931L283.316 28.4248C282.774 28.1464 282.15 28.0721 281.558 28.2151C280.965 28.3582 280.443 28.7093 280.086 29.205L235.458 91.7271L218.634 115.304C218.603 115.345 218.582 115.392 218.571 115.443C218.56 115.493 218.561 115.545 218.572 115.595C218.229 116.168 218.125 116.853 218.282 117.502Z" fill="#151515"/>
<path d="M218.572 115.595C218.579 115.639 218.596 115.682 218.62 115.719C218.644 115.757 218.676 115.79 218.712 115.815C218.756 115.845 218.805 115.866 218.857 115.876C218.908 115.886 218.962 115.886 219.013 115.875C219.097 115.853 219.17 115.801 219.221 115.73L219.278 115.65L220.154 114.419L236.063 92.1383L280.678 29.6305C280.933 29.2763 281.305 29.0255 281.728 28.9237C282.151 28.8219 282.596 28.8757 282.983 29.0755L374.865 76.8707L375.69 77.3007C375.723 77.3147 375.757 77.3268 375.792 77.3367C375.854 77.3253 375.917 77.3192 375.98 77.3186C376.067 77.2895 376.139 77.2285 376.182 77.1479C376.204 77.1055 376.218 77.059 376.222 77.0112C376.227 76.9634 376.222 76.9152 376.208 76.8693C376.194 76.8234 376.171 76.7808 376.14 76.7438C376.109 76.7069 376.072 76.6763 376.03 76.6539L375.916 76.5931L283.316 28.4248C282.774 28.1464 282.15 28.0721 281.557 28.2151C280.965 28.3582 280.443 28.7093 280.085 29.205L235.458 91.7271L218.633 115.304C218.603 115.345 218.581 115.392 218.571 115.443C218.56 115.493 218.56 115.545 218.572 115.595Z" fill="#305749"/>
<path d="M266.683 119.061L270.249 119.458L296.714 122.404L314.258 124.355L315.295 124.471L337.187 107.292L338.025 106.634L343.196 102.577L361.592 88.1431L361.703 87.1292L368.246 27.7994C368.335 26.9825 368.098 26.1633 367.587 25.5215C367.076 24.8797 366.333 24.4677 365.52 24.3758L278.196 14.6575C277.383 14.5683 276.567 14.8065 275.929 15.3198C275.29 15.8331 274.88 16.5799 274.788 17.3964L270.174 59.2463L267.614 82.4486L265.324 103.206L264.263 112.846L263.953 115.638C263.865 116.455 264.103 117.274 264.614 117.916C265.126 118.558 265.87 118.969 266.683 119.061Z" fill="#1D2524"/>
<path d="M290.68 67.0557L328.506 71.2646L341.921 72.7567C342.513 72.8226 343.112 72.7707 343.685 72.6039C344.257 72.4371 344.791 72.1587 345.256 71.7845C345.721 71.4104 346.108 70.9479 346.396 70.4234C346.683 69.8989 346.865 69.3227 346.93 68.7277C346.996 68.1327 346.944 67.5306 346.778 66.9556C346.612 66.3807 346.335 65.8443 345.962 65.3769C345.59 64.9096 345.13 64.5205 344.608 64.232C344.085 63.9434 343.512 63.7609 342.92 63.695L326.235 61.8386L291.682 57.9895C290.486 57.8567 289.286 58.2067 288.346 58.9624C287.406 59.7181 286.804 60.8178 286.671 62.0197C286.538 63.2215 286.886 64.4271 287.638 65.3715C288.39 66.3158 289.484 66.9216 290.68 67.0557Z" fill="#151515"/>
<path d="M288.526 83.8664C288.624 83.8839 288.721 83.9014 288.821 83.911L332.731 88.7981L340.062 89.6157C341.259 89.7486 342.459 89.3986 343.399 88.6426C344.338 87.8866 344.941 86.7865 345.073 85.5844C345.205 84.3823 344.857 83.1765 344.104 82.2325C343.352 81.2884 342.257 80.6834 341.06 80.5504L330.459 79.3721L295.677 75.5001L289.823 74.8484C288.653 74.7172 287.477 75.0485 286.545 75.7723C285.614 76.496 284.998 77.5554 284.83 78.7266C284.661 79.8977 284.953 81.0888 285.643 82.048C286.332 83.0071 287.367 83.6593 288.526 83.8664Z" fill="#151515"/>
<path d="M283.556 98.7718C283.916 99.3719 284.409 99.8807 284.996 100.259C285.584 100.636 286.25 100.873 286.943 100.95L304.94 102.953L336.994 106.52L337.001 106.519L338.026 106.633L343.196 102.576C343.228 102.268 343.229 101.958 343.197 101.649C343.088 100.614 342.631 99.648 341.901 98.9098C341.171 98.1716 340.211 97.7059 339.182 97.5897L334.729 97.0927L317.066 95.129L304.357 93.7129L287.941 91.8851C287.099 91.7915 286.249 91.9363 285.485 92.3029C284.721 92.6696 284.075 93.2435 283.619 93.9599C283.163 94.6763 282.915 95.5066 282.904 96.3569C282.893 97.2072 283.119 98.0437 283.556 98.7718Z" fill="#151515"/>
<path d="M308.835 46.5075L318.247 47.5547L322.404 48.0185L328.683 48.7167C329.88 48.8497 331.08 48.4997 332.02 47.7437C332.959 46.9876 333.562 45.8876 333.694 44.6854C333.826 43.4833 333.478 42.2776 332.725 41.3335C331.973 40.3895 330.878 39.7844 329.681 39.6514L309.838 37.4449C308.642 37.3113 307.442 37.6606 306.502 38.416C305.562 39.1713 304.959 40.2708 304.826 41.4726C304.693 42.6743 305.041 43.88 305.793 44.8242C306.545 45.7684 307.639 46.374 308.835 46.5075Z" fill="#151515"/>
<path d="M231.878 71.7496L243.353 119.369L262.503 123.027L280.219 126.415L299.226 130.049L305.299 131.21C305.654 131.277 306.02 131.268 306.372 131.182C306.723 131.097 307.053 130.937 307.338 130.714L312.211 126.891L315.295 124.47L337.188 107.291L323.268 49.5234C323.13 48.9487 322.83 48.4261 322.404 48.0184C322.031 47.6577 321.573 47.3973 321.073 47.2612C320.572 47.1251 320.046 47.1177 319.542 47.2397L234.151 68.007C233.356 68.2009 232.67 68.704 232.244 69.4057C231.818 70.1075 231.686 70.9505 231.878 71.7496Z" fill="#218D66"/>
<path d="M258.189 109.632C258.473 110.807 259.209 111.82 260.236 112.45C261.263 113.08 262.497 113.274 263.667 112.991L313.773 100.805C314.941 100.519 315.95 99.7791 316.576 98.7473C317.203 97.7156 317.397 96.4763 317.115 95.3012C317.103 95.243 317.086 95.1855 317.067 95.1293C316.747 93.9963 316.003 93.0318 314.99 92.4378C313.978 91.8437 312.776 91.6664 311.637 91.9428L261.532 104.129C260.362 104.414 259.354 105.154 258.727 106.186C258.1 107.218 257.907 108.457 258.189 109.632Z" fill="#151515"/>
<path d="M262.503 123.027L280.218 126.416L317.744 117.289C318.914 117.005 319.923 116.265 320.55 115.233C321.177 114.201 321.37 112.961 321.087 111.785C320.804 110.61 320.068 109.596 319.04 108.966C318.013 108.336 316.779 108.142 315.609 108.427L265.503 120.613C264.456 120.865 263.534 121.486 262.903 122.363C262.751 122.573 262.617 122.795 262.503 123.027Z" fill="#151515"/>
<path d="M299.225 130.049L305.298 131.21C305.654 131.277 306.02 131.268 306.371 131.182C306.723 131.097 307.052 130.937 307.338 130.714L312.21 126.891L299.225 130.049Z" fill="#151515"/>
<path d="M268.285 84.0984C268.569 85.273 269.305 86.2864 270.332 86.9161C271.359 87.5458 272.593 87.7402 273.763 87.4568L293.17 82.737C294.339 82.451 295.347 81.7109 295.974 80.6792C296.6 79.6475 296.794 78.4082 296.513 77.2331C296.362 76.6017 296.077 76.0105 295.677 75.5001C295.14 74.8101 294.417 74.2899 293.594 74.0017C292.77 73.7135 291.882 73.6694 291.034 73.8747L271.627 78.5945C270.458 78.8792 269.449 79.6189 268.822 80.651C268.195 81.6831 268.001 82.9232 268.285 84.0984Z" fill="#151515"/>
<path d="M280.217 126.415L299.227 130.049L305.298 131.211C305.654 131.278 306.019 131.268 306.37 131.183C306.722 131.097 307.051 130.938 307.337 130.715L312.213 126.891L310.502 127.307L306.89 130.138C306.686 130.297 306.45 130.411 306.199 130.472C305.948 130.533 305.687 130.54 305.433 130.492L300.938 129.633L281.928 125.999L280.217 126.415ZM336.999 106.522L337.185 107.29L338.028 106.631L336.999 106.522ZM280.217 126.415L299.227 130.049L305.298 131.211C305.654 131.278 306.019 131.268 306.37 131.183C306.722 131.097 307.051 130.938 307.337 130.715L312.213 126.891L310.502 127.307L306.89 130.138C306.686 130.297 306.45 130.411 306.199 130.472C305.948 130.533 305.687 130.54 305.433 130.492L300.938 129.633L281.928 125.999L280.217 126.415ZM280.217 126.415L299.227 130.049L305.298 131.211C305.654 131.278 306.019 131.268 306.37 131.183C306.722 131.097 307.051 130.938 307.337 130.715L312.213 126.891L310.502 127.307L306.89 130.138C306.686 130.297 306.45 130.411 306.199 130.472C305.948 130.533 305.687 130.54 305.433 130.492L300.938 129.633L281.928 125.999L280.217 126.415ZM218.282 117.502L239.733 206.524C239.892 207.182 240.305 207.749 240.88 208.102C241.455 208.455 242.146 208.563 242.801 208.405L398.056 170.646C398.711 170.487 399.276 170.072 399.627 169.494C399.978 168.916 400.087 168.222 399.929 167.564L378.478 78.5421C378.379 78.1266 378.177 77.7429 377.891 77.4267C377.605 77.1104 377.244 76.8719 376.842 76.7332C376.545 76.6283 376.231 76.5808 375.916 76.5933C375.549 76.6039 375.19 76.6989 374.866 76.8709C374.716 76.9423 374.574 77.0305 374.444 77.1338L361.702 87.1294L343.198 101.652L336.998 106.517L336.999 106.522L336.994 106.523L314.26 124.352L310.502 127.307L306.89 130.138C306.686 130.297 306.45 130.411 306.199 130.472C305.948 130.533 305.687 130.54 305.433 130.492L300.938 129.633L281.928 125.999L262.901 122.363L221.228 114.396C220.873 114.326 220.507 114.333 220.155 114.42C219.681 114.536 219.25 114.787 218.914 115.142C218.785 115.281 218.671 115.433 218.572 115.595C218.229 116.168 218.125 116.853 218.282 117.502ZM280.217 126.415L299.227 130.049L305.298 131.211C305.654 131.278 306.019 131.268 306.37 131.183C306.722 131.097 307.051 130.938 307.337 130.715L312.213 126.891L310.502 127.307L306.89 130.138C306.686 130.297 306.45 130.411 306.199 130.472C305.948 130.533 305.687 130.54 305.433 130.492L300.938 129.633L281.928 125.999L280.217 126.415ZM280.217 126.415L299.227 130.049L305.298 131.211C305.654 131.278 306.019 131.268 306.37 131.183C306.722 131.097 307.051 130.938 307.337 130.715L312.213 126.891L310.502 127.307L306.89 130.138C306.686 130.297 306.45 130.411 306.199 130.472C305.948 130.533 305.687 130.54 305.433 130.492L300.938 129.633L281.928 125.999L280.217 126.415ZM280.217 126.415L299.227 130.049L305.298 131.211C305.654 131.278 306.019 131.268 306.37 131.183C306.722 131.097 307.051 130.938 307.337 130.715L312.213 126.891L310.502 127.307L306.89 130.138C306.686 130.297 306.45 130.411 306.199 130.472C305.948 130.533 305.687 130.54 305.433 130.492L300.938 129.633L281.928 125.999L280.217 126.415Z" fill="#151515"/>
<path d="M280.217 126.415L299.227 130.049L305.298 131.211C305.654 131.278 306.019 131.268 306.37 131.183C306.722 131.097 307.051 130.938 307.337 130.715L312.213 126.891L310.502 127.307L306.89 130.138C306.686 130.297 306.45 130.411 306.199 130.472C305.948 130.533 305.687 130.54 305.433 130.492L300.938 129.633L281.928 125.999L280.217 126.415ZM336.999 106.522L337.185 107.29L338.028 106.631L336.999 106.522ZM280.217 126.415L299.227 130.049L305.298 131.211C305.654 131.278 306.019 131.268 306.37 131.183C306.722 131.097 307.051 130.938 307.337 130.715L312.213 126.891L310.502 127.307L306.89 130.138C306.686 130.297 306.45 130.411 306.199 130.472C305.948 130.533 305.687 130.54 305.433 130.492L300.938 129.633L281.928 125.999L280.217 126.415ZM280.217 126.415L299.227 130.049L305.298 131.211C305.654 131.278 306.019 131.268 306.37 131.183C306.722 131.097 307.051 130.938 307.337 130.715L312.213 126.891L310.502 127.307L306.89 130.138C306.686 130.297 306.45 130.411 306.199 130.472C305.948 130.533 305.687 130.54 305.433 130.492L300.938 129.633L281.928 125.999L280.217 126.415ZM219.279 115.65L219.373 115.721C219.389 115.695 219.416 115.672 219.437 115.645C219.647 115.425 219.908 115.261 220.197 115.168C220.486 115.074 220.793 115.054 221.092 115.11L262.504 123.024L280.217 126.415L299.227 130.049L305.298 131.211C305.654 131.278 306.019 131.268 306.37 131.183C306.722 131.097 307.051 130.938 307.337 130.715L312.213 126.891L310.502 127.307L306.89 130.138C306.686 130.297 306.45 130.411 306.199 130.472C305.948 130.533 305.687 130.54 305.433 130.492L300.938 129.633L281.928 125.999L262.901 122.363L221.228 114.396C220.873 114.325 220.507 114.333 220.155 114.42L219.279 115.65ZM218.282 117.502L239.733 206.524C239.892 207.182 240.305 207.749 240.88 208.102C241.455 208.455 242.146 208.563 242.801 208.405L398.056 170.646C398.711 170.487 399.276 170.072 399.627 169.494C399.978 168.916 400.087 168.222 399.929 167.564L378.478 78.5421C378.379 78.1266 378.177 77.7429 377.891 77.4267C377.605 77.1104 377.244 76.8719 376.842 76.7332C376.545 76.6283 376.231 76.5808 375.916 76.5933C375.549 76.6039 375.19 76.6989 374.866 76.8709C374.716 76.9423 374.574 77.0305 374.444 77.1338L361.702 87.1294L343.198 101.652L336.998 106.517L336.999 106.522L336.994 106.523L314.26 124.352L310.502 127.307L306.89 130.138C306.686 130.297 306.45 130.411 306.199 130.472C305.948 130.533 305.687 130.54 305.433 130.492L300.938 129.633L281.928 125.999L262.901 122.363L221.228 114.396C220.873 114.325 220.507 114.333 220.155 114.42C219.681 114.536 219.25 114.787 218.914 115.142C218.785 115.281 218.671 115.433 218.572 115.595C218.229 116.168 218.125 116.853 218.282 117.502ZM218.99 117.33C218.927 117.068 218.922 116.794 218.978 116.53C219.033 116.266 219.147 116.017 219.31 115.803C219.325 115.772 219.346 115.744 219.373 115.721C219.389 115.695 219.416 115.672 219.437 115.645C219.647 115.425 219.908 115.261 220.197 115.168C220.486 115.074 220.793 115.054 221.092 115.11L262.504 123.024L280.217 126.415L299.227 130.049L305.298 131.211C305.654 131.278 306.019 131.268 306.37 131.183C306.722 131.097 307.051 130.938 307.337 130.715L312.213 126.891L315.296 124.471L337.185 107.29L338.028 106.631L343.194 102.576L361.594 88.1403L374.896 77.7042C375.098 77.5458 375.331 77.4324 375.581 77.3717C375.65 77.3546 375.721 77.3429 375.792 77.3368C375.855 77.3255 375.918 77.3194 375.981 77.3187C376.193 77.3167 376.405 77.3513 376.606 77.4211C376.892 77.5214 377.15 77.6921 377.354 77.9177C377.558 78.1433 377.703 78.4167 377.776 78.7129L399.226 167.735C399.283 167.968 399.293 168.21 399.256 168.447C399.219 168.685 399.136 168.912 399.012 169.117C398.887 169.322 398.724 169.5 398.531 169.642C398.338 169.783 398.119 169.885 397.886 169.941L242.631 207.699C242.163 207.813 241.669 207.734 241.258 207.481C240.847 207.229 240.553 206.822 240.441 206.352L218.99 117.33ZM280.217 126.415L299.227 130.049L305.298 131.211C305.654 131.278 306.019 131.268 306.37 131.183C306.722 131.097 307.051 130.938 307.337 130.715L312.213 126.891L310.502 127.307L306.89 130.138C306.686 130.297 306.45 130.411 306.199 130.472C305.948 130.533 305.687 130.54 305.433 130.492L300.938 129.633L281.928 125.999L280.217 126.415ZM280.217 126.415L299.227 130.049L305.298 131.211C305.654 131.278 306.019 131.268 306.37 131.183C306.722 131.097 307.051 130.938 307.337 130.715L312.213 126.891L310.502 127.307L306.89 130.138C306.686 130.297 306.45 130.411 306.199 130.472C305.948 130.533 305.687 130.54 305.433 130.492L300.938 129.633L281.928 125.999L280.217 126.415ZM280.217 126.415L299.227 130.049L305.298 131.211C305.654 131.278 306.019 131.268 306.37 131.183C306.722 131.097 307.051 130.938 307.337 130.715L312.213 126.891L310.502 127.307L306.89 130.138C306.686 130.297 306.45 130.411 306.199 130.472C305.948 130.533 305.687 130.54 305.433 130.492L300.938 129.633L281.928 125.999L280.217 126.415Z" fill="#305749"/>
<path d="M357.592 153.157C357.242 151.698 357.483 150.159 358.261 148.879C359.039 147.598 360.29 146.679 361.742 146.325L381.337 141.559C382.787 141.212 384.315 141.456 385.586 142.238C386.857 143.021 387.767 144.277 388.118 145.733C388.469 147.188 388.231 148.724 387.457 150.004C386.683 151.283 385.435 152.203 383.988 152.56L364.392 157.326C362.94 157.677 361.409 157.435 360.134 156.654C358.859 155.872 357.945 154.615 357.592 153.157Z" fill="#218D66"/>
<path d="M141.042 136.624C143.724 136.624 145.899 134.44 145.899 131.745C145.899 129.05 143.724 126.865 141.042 126.865C138.36 126.865 136.185 129.05 136.185 131.745C136.185 134.44 138.36 136.624 141.042 136.624Z" fill="#151515"/>
</g>
<defs>
<clipPath id="clip0_172_61758">
<rect width="400" height="344" fill="white"/>
</clipPath>
</defs>
</svg>
